<mxfile host="app.diagrams.net" modified="2023-02-27T01:48:05.475Z" agent="5.0 (X11)" version="20.7.4" etag="0jW30_zHlK9szevy13fJ" type="github">
  <diagram id="tl0wJuyJ-sTQWj9ZScml" name="Page-1">
    <mxGraphModel dx="1602" dy="1035" grid="1" gridSize="10" guides="1" tooltips="1" connect="1" arrows="1" fold="1" page="1" pageScale="1" pageWidth="850" pageHeight="1100" math="0" shadow="0">
      <root>
        <mxCell id="0" />
        <mxCell id="1" parent="0" />
        <mxCell id="n0eHLcQR_XPMflY-yQHW-1" value="&lt;div&gt;LIDAR&lt;/div&gt;&lt;div&gt;scan_data&lt;br&gt;&lt;/div&gt;" style="shape=parallelogram;perimeter=parallelogramPerimeter;whiteSpace=wrap;html=1;fixedSize=1;" vertex="1" parent="1">
          <mxGeometry x="80" y="80" width="120" height="60" as="geometry" />
        </mxCell>
        <mxCell id="n0eHLcQR_XPMflY-yQHW-5" value="&lt;div&gt;Local_&lt;/div&gt;&lt;div&gt;environment_map&lt;/div&gt;" style="rounded=0;whiteSpace=wrap;html=1;" vertex="1" parent="1">
          <mxGeometry x="80" y="170" width="120" height="60" as="geometry" />
        </mxCell>
        <mxCell id="n0eHLcQR_XPMflY-yQHW-10" value="" style="endArrow=classic;html=1;rounded=0;" edge="1" parent="1">
          <mxGeometry relative="1" as="geometry">
            <mxPoint x="190" y="110" as="sourcePoint" />
            <mxPoint x="290" y="110" as="targetPoint" />
          </mxGeometry>
        </mxCell>
        <mxCell id="n0eHLcQR_XPMflY-yQHW-14" value="" style="endArrow=classic;html=1;rounded=0;" edge="1" parent="1">
          <mxGeometry width="50" height="50" relative="1" as="geometry">
            <mxPoint x="260" y="200" as="sourcePoint" />
            <mxPoint x="260" y="110" as="targetPoint" />
          </mxGeometry>
        </mxCell>
        <mxCell id="n0eHLcQR_XPMflY-yQHW-15" value="&lt;div&gt;Dynamic_&lt;/div&gt;&lt;div&gt;background_subtraction&lt;/div&gt;" style="rounded=0;whiteSpace=wrap;html=1;" vertex="1" parent="1">
          <mxGeometry x="290" y="80" width="130" height="60" as="geometry" />
        </mxCell>
        <mxCell id="n0eHLcQR_XPMflY-yQHW-16" value="" style="endArrow=classic;html=1;rounded=0;exitX=1;exitY=0.5;exitDx=0;exitDy=0;" edge="1" parent="1" source="n0eHLcQR_XPMflY-yQHW-15">
          <mxGeometry width="50" height="50" relative="1" as="geometry">
            <mxPoint x="320" y="250" as="sourcePoint" />
            <mxPoint x="490" y="110" as="targetPoint" />
          </mxGeometry>
        </mxCell>
        <mxCell id="n0eHLcQR_XPMflY-yQHW-17" value="&lt;div&gt;Extract_&lt;/div&gt;&lt;div&gt;scan_data&lt;br&gt;&lt;/div&gt;" style="rounded=0;whiteSpace=wrap;html=1;" vertex="1" parent="1">
          <mxGeometry x="490" y="80" width="120" height="60" as="geometry" />
        </mxCell>
        <mxCell id="n0eHLcQR_XPMflY-yQHW-18" value="" style="endArrow=classic;html=1;rounded=0;exitX=0.5;exitY=1;exitDx=0;exitDy=0;" edge="1" parent="1" source="n0eHLcQR_XPMflY-yQHW-17">
          <mxGeometry width="50" height="50" relative="1" as="geometry">
            <mxPoint x="530" y="240" as="sourcePoint" />
            <mxPoint x="550" y="200" as="targetPoint" />
          </mxGeometry>
        </mxCell>
        <mxCell id="n0eHLcQR_XPMflY-yQHW-19" value="&lt;div&gt;Occupancy_&lt;/div&gt;&lt;div&gt;grid_method&lt;br&gt;&lt;/div&gt;" style="rounded=0;whiteSpace=wrap;html=1;" vertex="1" parent="1">
          <mxGeometry x="490" y="200" width="120" height="60" as="geometry" />
        </mxCell>
        <mxCell id="n0eHLcQR_XPMflY-yQHW-20" value="" style="endArrow=classic;html=1;rounded=0;exitX=0.5;exitY=1;exitDx=0;exitDy=0;" edge="1" parent="1" source="n0eHLcQR_XPMflY-yQHW-19">
          <mxGeometry width="50" height="50" relative="1" as="geometry">
            <mxPoint x="410" y="250" as="sourcePoint" />
            <mxPoint x="550" y="320" as="targetPoint" />
          </mxGeometry>
        </mxCell>
        <mxCell id="n0eHLcQR_XPMflY-yQHW-21" value="&lt;div&gt;Feature_&lt;/div&gt;&lt;div&gt;caculate&lt;br&gt;&lt;/div&gt;" style="rounded=0;whiteSpace=wrap;html=1;" vertex="1" parent="1">
          <mxGeometry x="490" y="430" width="120" height="60" as="geometry" />
        </mxCell>
        <mxCell id="n0eHLcQR_XPMflY-yQHW-22" value="&lt;div&gt;Moving_&lt;/div&gt;&lt;div&gt;scan_data&lt;br&gt;&lt;/div&gt;" style="rounded=0;whiteSpace=wrap;html=1;" vertex="1" parent="1">
          <mxGeometry x="490" y="320" width="120" height="60" as="geometry" />
        </mxCell>
        <mxCell id="n0eHLcQR_XPMflY-yQHW-23" value="" style="endArrow=classic;html=1;rounded=0;exitX=0.5;exitY=1;exitDx=0;exitDy=0;entryX=0.5;entryY=0;entryDx=0;entryDy=0;" edge="1" parent="1" source="n0eHLcQR_XPMflY-yQHW-22" target="n0eHLcQR_XPMflY-yQHW-21">
          <mxGeometry width="50" height="50" relative="1" as="geometry">
            <mxPoint x="520" y="450" as="sourcePoint" />
            <mxPoint x="570" y="400" as="targetPoint" />
          </mxGeometry>
        </mxCell>
        <mxCell id="n0eHLcQR_XPMflY-yQHW-24" value="&lt;div&gt;Static_&lt;/div&gt;&lt;div&gt;scan_data&lt;br&gt;&lt;/div&gt;" style="rounded=0;whiteSpace=wrap;html=1;" vertex="1" parent="1">
          <mxGeometry x="320" y="320" width="120" height="60" as="geometry" />
        </mxCell>
        <mxCell id="n0eHLcQR_XPMflY-yQHW-28" value="" style="endArrow=none;html=1;rounded=0;" edge="1" parent="1">
          <mxGeometry width="50" height="50" relative="1" as="geometry">
            <mxPoint x="440" y="280" as="sourcePoint" />
            <mxPoint x="550" y="280" as="targetPoint" />
          </mxGeometry>
        </mxCell>
        <mxCell id="n0eHLcQR_XPMflY-yQHW-29" value="" style="endArrow=none;html=1;rounded=0;" edge="1" parent="1">
          <mxGeometry width="50" height="50" relative="1" as="geometry">
            <mxPoint x="380" y="280" as="sourcePoint" />
            <mxPoint x="440" y="280" as="targetPoint" />
          </mxGeometry>
        </mxCell>
        <mxCell id="n0eHLcQR_XPMflY-yQHW-30" value="" style="endArrow=classic;html=1;rounded=0;entryX=0.5;entryY=0;entryDx=0;entryDy=0;" edge="1" parent="1" target="n0eHLcQR_XPMflY-yQHW-24">
          <mxGeometry width="50" height="50" relative="1" as="geometry">
            <mxPoint x="380" y="280" as="sourcePoint" />
            <mxPoint x="760" y="350" as="targetPoint" />
          </mxGeometry>
        </mxCell>
        <mxCell id="n0eHLcQR_XPMflY-yQHW-31" value="" style="endArrow=none;html=1;rounded=0;" edge="1" parent="1" source="n0eHLcQR_XPMflY-yQHW-5">
          <mxGeometry width="50" height="50" relative="1" as="geometry">
            <mxPoint x="200" y="250" as="sourcePoint" />
            <mxPoint x="260" y="200" as="targetPoint" />
          </mxGeometry>
        </mxCell>
        <mxCell id="n0eHLcQR_XPMflY-yQHW-32" value="" style="endArrow=none;html=1;rounded=0;entryX=0;entryY=0.5;entryDx=0;entryDy=0;" edge="1" parent="1" target="n0eHLcQR_XPMflY-yQHW-24">
          <mxGeometry width="50" height="50" relative="1" as="geometry">
            <mxPoint x="140" y="350" as="sourcePoint" />
            <mxPoint x="310" y="360" as="targetPoint" />
          </mxGeometry>
        </mxCell>
        <mxCell id="n0eHLcQR_XPMflY-yQHW-33" value="" style="endArrow=classic;html=1;rounded=0;entryX=0.5;entryY=1;entryDx=0;entryDy=0;" edge="1" parent="1" target="n0eHLcQR_XPMflY-yQHW-5">
          <mxGeometry width="50" height="50" relative="1" as="geometry">
            <mxPoint x="140" y="350" as="sourcePoint" />
            <mxPoint x="760" y="350" as="targetPoint" />
          </mxGeometry>
        </mxCell>
        <mxCell id="n0eHLcQR_XPMflY-yQHW-34" value="" style="endArrow=classic;html=1;rounded=0;exitX=0.5;exitY=1;exitDx=0;exitDy=0;" edge="1" parent="1" source="n0eHLcQR_XPMflY-yQHW-21">
          <mxGeometry width="50" height="50" relative="1" as="geometry">
            <mxPoint x="520" y="590" as="sourcePoint" />
            <mxPoint x="550" y="550" as="targetPoint" />
          </mxGeometry>
        </mxCell>
        <mxCell id="n0eHLcQR_XPMflY-yQHW-35" value="&lt;div&gt;Random_&lt;/div&gt;&lt;div&gt;forest_classification&lt;br&gt;&lt;/div&gt;" style="rounded=0;whiteSpace=wrap;html=1;" vertex="1" parent="1">
          <mxGeometry x="490" y="550" width="120" height="60" as="geometry" />
        </mxCell>
        <mxCell id="n0eHLcQR_XPMflY-yQHW-36" value="Leg" style="rounded=0;whiteSpace=wrap;html=1;" vertex="1" parent="1">
          <mxGeometry x="490" y="680" width="120" height="60" as="geometry" />
        </mxCell>
        <mxCell id="n0eHLcQR_XPMflY-yQHW-37" value="" style="endArrow=classic;html=1;rounded=0;entryX=0.5;entryY=0;entryDx=0;entryDy=0;exitX=0.5;exitY=1;exitDx=0;exitDy=0;" edge="1" parent="1" source="n0eHLcQR_XPMflY-yQHW-35" target="n0eHLcQR_XPMflY-yQHW-36">
          <mxGeometry width="50" height="50" relative="1" as="geometry">
            <mxPoint x="520" y="660" as="sourcePoint" />
            <mxPoint x="570" y="610" as="targetPoint" />
          </mxGeometry>
        </mxCell>
        <mxCell id="n0eHLcQR_XPMflY-yQHW-38" value="Non_leg" style="rounded=0;whiteSpace=wrap;html=1;" vertex="1" parent="1">
          <mxGeometry x="690" y="510" width="120" height="60" as="geometry" />
        </mxCell>
        <mxCell id="n0eHLcQR_XPMflY-yQHW-39" value="" style="endArrow=none;html=1;rounded=0;" edge="1" parent="1">
          <mxGeometry width="50" height="50" relative="1" as="geometry">
            <mxPoint x="550" y="640" as="sourcePoint" />
            <mxPoint x="750" y="640" as="targetPoint" />
          </mxGeometry>
        </mxCell>
        <mxCell id="n0eHLcQR_XPMflY-yQHW-40" value="" style="endArrow=classic;html=1;rounded=0;entryX=0.5;entryY=1;entryDx=0;entryDy=0;" edge="1" parent="1" target="n0eHLcQR_XPMflY-yQHW-38">
          <mxGeometry width="50" height="50" relative="1" as="geometry">
            <mxPoint x="750" y="640" as="sourcePoint" />
            <mxPoint x="760" y="410" as="targetPoint" />
          </mxGeometry>
        </mxCell>
        <mxCell id="n0eHLcQR_XPMflY-yQHW-42" value="" style="endArrow=none;html=1;rounded=0;exitX=0.5;exitY=0;exitDx=0;exitDy=0;" edge="1" parent="1" source="n0eHLcQR_XPMflY-yQHW-38">
          <mxGeometry width="50" height="50" relative="1" as="geometry">
            <mxPoint x="710" y="460" as="sourcePoint" />
            <mxPoint x="750" y="230" as="targetPoint" />
          </mxGeometry>
        </mxCell>
        <mxCell id="n0eHLcQR_XPMflY-yQHW-43" value="" style="endArrow=classic;html=1;rounded=0;entryX=1;entryY=0.5;entryDx=0;entryDy=0;" edge="1" parent="1" target="n0eHLcQR_XPMflY-yQHW-19">
          <mxGeometry width="50" height="50" relative="1" as="geometry">
            <mxPoint x="750" y="230" as="sourcePoint" />
            <mxPoint x="760" y="410" as="targetPoint" />
          </mxGeometry>
        </mxCell>
        <mxCell id="n0eHLcQR_XPMflY-yQHW-44" value="&lt;div&gt;Kalman_&lt;/div&gt;&lt;div&gt;filter&lt;br&gt;&lt;/div&gt;" style="rounded=0;whiteSpace=wrap;html=1;" vertex="1" parent="1">
          <mxGeometry x="490" y="780" width="120" height="60" as="geometry" />
        </mxCell>
        <mxCell id="n0eHLcQR_XPMflY-yQHW-45" value="" style="endArrow=classic;html=1;rounded=0;exitX=0.5;exitY=1;exitDx=0;exitDy=0;entryX=0.5;entryY=0;entryDx=0;entryDy=0;" edge="1" parent="1" source="n0eHLcQR_XPMflY-yQHW-36" target="n0eHLcQR_XPMflY-yQHW-44">
          <mxGeometry width="50" height="50" relative="1" as="geometry">
            <mxPoint x="710" y="670" as="sourcePoint" />
            <mxPoint x="760" y="620" as="targetPoint" />
          </mxGeometry>
        </mxCell>
        <mxCell id="n0eHLcQR_XPMflY-yQHW-46" value="&lt;div&gt;Predict_&lt;/div&gt;&lt;div&gt;leg&lt;br&gt;&lt;/div&gt;" style="rounded=0;whiteSpace=wrap;html=1;" vertex="1" parent="1">
          <mxGeometry x="490" y="880" width="120" height="60" as="geometry" />
        </mxCell>
        <mxCell id="n0eHLcQR_XPMflY-yQHW-47" value="" style="endArrow=classic;html=1;rounded=0;entryX=0.5;entryY=0;entryDx=0;entryDy=0;exitX=0.5;exitY=1;exitDx=0;exitDy=0;" edge="1" parent="1" source="n0eHLcQR_XPMflY-yQHW-44" target="n0eHLcQR_XPMflY-yQHW-46">
          <mxGeometry width="50" height="50" relative="1" as="geometry">
            <mxPoint x="530" y="880" as="sourcePoint" />
            <mxPoint x="580" y="830" as="targetPoint" />
          </mxGeometry>
        </mxCell>
        <mxCell id="n0eHLcQR_XPMflY-yQHW-48" value="" style="endArrow=none;html=1;rounded=0;exitX=0;exitY=0.5;exitDx=0;exitDy=0;" edge="1" parent="1" source="n0eHLcQR_XPMflY-yQHW-36">
          <mxGeometry width="50" height="50" relative="1" as="geometry">
            <mxPoint x="710" y="670" as="sourcePoint" />
            <mxPoint x="350" y="710" as="targetPoint" />
          </mxGeometry>
        </mxCell>
        <mxCell id="n0eHLcQR_XPMflY-yQHW-49" value="" style="endArrow=none;html=1;rounded=0;entryX=0;entryY=0.5;entryDx=0;entryDy=0;" edge="1" parent="1" target="n0eHLcQR_XPMflY-yQHW-46">
          <mxGeometry width="50" height="50" relative="1" as="geometry">
            <mxPoint x="350" y="910" as="sourcePoint" />
            <mxPoint x="430" y="880" as="targetPoint" />
          </mxGeometry>
        </mxCell>
        <mxCell id="n0eHLcQR_XPMflY-yQHW-50" value="" style="endArrow=classic;html=1;rounded=0;" edge="1" parent="1">
          <mxGeometry width="50" height="50" relative="1" as="geometry">
            <mxPoint x="350" y="710" as="sourcePoint" />
            <mxPoint x="350" y="780" as="targetPoint" />
          </mxGeometry>
        </mxCell>
        <mxCell id="n0eHLcQR_XPMflY-yQHW-51" value="" style="endArrow=classic;html=1;rounded=0;entryX=0.5;entryY=1;entryDx=0;entryDy=0;" edge="1" parent="1" target="n0eHLcQR_XPMflY-yQHW-52">
          <mxGeometry x="0.7199" y="-20" width="50" height="50" relative="1" as="geometry">
            <mxPoint x="350" y="910" as="sourcePoint" />
            <mxPoint x="350" y="830" as="targetPoint" />
            <mxPoint y="1" as="offset" />
          </mxGeometry>
        </mxCell>
        <mxCell id="n0eHLcQR_XPMflY-yQHW-52" value="&lt;div&gt;Data_&lt;/div&gt;&lt;div&gt;association&lt;br&gt;&lt;/div&gt;" style="rounded=0;whiteSpace=wrap;html=1;" vertex="1" parent="1">
          <mxGeometry x="290" y="780" width="120" height="60" as="geometry" />
        </mxCell>
        <mxCell id="n0eHLcQR_XPMflY-yQHW-53" value="&lt;div&gt;Leg_&lt;/div&gt;&lt;div&gt;tracking&lt;br&gt;&lt;/div&gt;" style="rounded=0;whiteSpace=wrap;html=1;" vertex="1" parent="1">
          <mxGeometry x="120" y="780" width="120" height="60" as="geometry" />
        </mxCell>
        <mxCell id="n0eHLcQR_XPMflY-yQHW-54" value="" style="endArrow=classic;html=1;rounded=0;entryX=1;entryY=0.5;entryDx=0;entryDy=0;exitX=0;exitY=0.5;exitDx=0;exitDy=0;" edge="1" parent="1" source="n0eHLcQR_XPMflY-yQHW-52" target="n0eHLcQR_XPMflY-yQHW-53">
          <mxGeometry width="50" height="50" relative="1" as="geometry">
            <mxPoint x="240" y="700" as="sourcePoint" />
            <mxPoint x="310.71067811865476" y="810" as="targetPoint" />
          </mxGeometry>
        </mxCell>
      </root>
    </mxGraphModel>
  </diagram>
</mxfile>
